<svg  version="1.1" xmlns="http://www.w3.org/2000/svg">
  <symbol id="minus-square" viewBox="0 0 1024 1024">
    <path d="M51.2 153.303146 51.2 153.303146 51.2 870.696852C51.2 927.00159 96.969249 972.8 153.303146 972.8L870.696852 972.8C927.00159 972.8 972.8 927.030753 972.8 870.696852L972.8 153.303146C972.8 96.998412 927.030753 51.2 870.696852 51.2L153.303146 51.2C96.998412 51.2 51.2 96.969249 51.2 153.303146L51.2 153.303146ZM0 153.303146C0 68.636156 68.777573 0 153.303146 0L870.696852 0C955.363845 0 1024 68.777573 1024 153.303146L1024 870.696852C1024 955.363845 955.222426 1024 870.696852 1024L153.303146 1024C68.636156 1024 0 955.222426 0 870.696852L0 153.303146 0 153.303146Z" p-id="2009"></path>
    <path d="M339.2 460.8C321.536 460.8 307.2 475.2 307.2 492.8 307.2 510.4 321.536 524.8 339.2 524.8L723.2 524.8C740.864 524.8 755.2 510.4 755.2 492.8 755.2 475.2 740.864 460.8 723.2 460.8L339.2 460.8Z" p-id="2010"></path>
  </symbol>

  <symbol id="plus-square" viewBox="0 0 1024 1024">
    <path d="M960 1022.6c35.3 0 64-28.699 64-64l0-894c0-35.4-28.7-64-64-64L64 0.6c-35.3 0-64 28.7-64 64l0 894c0 35.301 28.7 64 64 64L960 1022.6zM960 958.6 64 958.6l0-894 896 0L960 958.6z" p-id="6344"></path><path d="M799.984 480.003 543.997 480.003 543.997 224.016c0-17.698-14.299-31.997-31.996-31.997-17.699 0-31.998 14.299-31.998 31.997l0 255.987L224.016 480.003c-17.698 0-31.997 14.299-31.997 31.996 0 17.699 14.299 31.998 31.997 31.998l255.987 0 0 255.987c0 17.698 14.299 31.997 31.998 31.997 17.697 0 31.996-14.299 31.996-31.997L543.997 543.997l255.987 0c17.698 0 31.997-14.299 31.997-31.998C831.981 494.302 817.683 480.003 799.984 480.003z" p-id="6345"></path>
  </symbol>

  <symbol id="expand" viewBox="0 0 1024 1024">
    <path d="M256 256l0 512 128 0L192 960 0 768l128 0L128 256 0 256 192 64l192 192L256 256zM448 832l576 0L1024 704 448 704 448 832zM448 576l576 0L1024 448 448 448 448 576zM448 192l0 128 576 0L1024 192 448 192z" p-id="10893"></path>
  </symbol>

  <symbol id="collapse" viewBox="0 0 1024 1024">
    <path d="M256 256l128 0L192 448 0 256l128 0L128 64l128 0L256 256zM448 832l576 0L1024 704 448 704 448 832zM0 768l128 0 0 192 128 0L256 768l128 0L192 576 0 768zM448 576l576 0L1024 448 448 448 448 576zM448 192l0 128 576 0L1024 192 448 192z" p-id="8607"></path>
  </symbol>

  <symbol id="github" viewBox="0 0 1024 1024">
    <path d="M941.714 512q0 143.433-83.712 258.011t-216.283 158.574q-15.433 2.853-22.565-3.986t-7.131-17.152v-120.576q0-55.442-29.696-81.152 32.585-3.438 58.587-10.277t53.723-22.272 46.299-37.998 30.281-60.014 11.703-86.016q0-69.157-45.129-117.723 21.138-52.005-4.571-116.553-16.018-5.157-46.299 6.29t-52.553 25.161l-21.723 13.714q-53.138-14.848-109.714-14.848t-109.714 14.848q-9.143-6.29-24.283-15.433t-47.726-22.016-49.152-7.717q-25.161 64.585-3.986 116.553-45.129 48.567-45.129 117.723 0 48.567 11.703 85.723t29.989 60.014 46.007 38.29 53.723 22.272 58.587 10.277q-22.857 20.553-28.014 58.843-11.995 5.705-25.71 8.558t-32.585 2.853-37.413-12.288-31.707-35.73q-10.862-18.286-27.721-29.696t-28.27-13.714l-11.447-1.719q-11.995 0-16.567 2.56t-2.853 6.583 5.157 8.009 7.424 6.839l3.986 2.853q12.581 5.705 24.869 21.723t17.993 29.147l5.705 13.129q7.424 21.723 25.161 35.145t38.29 17.152 39.717 3.986 31.707-2.011l13.129-2.304q0 21.723 0.293 50.871t0.293 30.866q0 10.277-7.424 17.152t-22.857 3.986q-132.571-43.995-216.283-158.574t-83.712-258.011q0-119.442 58.843-220.27t159.707-159.707 220.27-58.843 220.27 58.843 159.707 159.707 58.843 220.27z" p-id="12243"></path>
  </symbol>
</svg>
