<svg  version="1.1" xmlns="http://www.w3.org/2000/svg">
  <symbol id="minus-square" viewBox="0 0 1024 1024">
    <path d="M51.2 153.303146 51.2 153.303146 51.2 870.696852C51.2 927.00159 96.969249 972.8 153.303146 972.8L870.696852 972.8C927.00159 972.8 972.8 927.030753 972.8 870.696852L972.8 153.303146C972.8 96.998412 927.030753 51.2 870.696852 51.2L153.303146 51.2C96.998412 51.2 51.2 96.969249 51.2 153.303146L51.2 153.303146ZM0 153.303146C0 68.636156 68.777573 0 153.303146 0L870.696852 0C955.363845 0 1024 68.777573 1024 153.303146L1024 870.696852C1024 955.363845 955.222426 1024 870.696852 1024L153.303146 1024C68.636156 1024 0 955.222426 0 870.696852L0 153.303146 0 153.303146Z" p-id="2009"></path>
    <path d="M339.2 460.8C321.536 460.8 307.2 475.2 307.2 492.8 307.2 510.4 321.536 524.8 339.2 524.8L723.2 524.8C740.864 524.8 755.2 510.4 755.2 492.8 755.2 475.2 740.864 460.8 723.2 460.8L339.2 460.8Z" p-id="2010"></path>
  </symbol>
</svg>
