<svg  version="1.1" xmlns="http://www.w3.org/2000/svg">
  <symbol id="minus-square" viewBox="0 0 1024 1024">
    <path d="M51.2 153.303146 51.2 153.303146 51.2 870.696852C51.2 927.00159 96.969249 972.8 153.303146 972.8L870.696852 972.8C927.00159 972.8 972.8 927.030753 972.8 870.696852L972.8 153.303146C972.8 96.998412 927.030753 51.2 870.696852 51.2L153.303146 51.2C96.998412 51.2 51.2 96.969249 51.2 153.303146L51.2 153.303146ZM0 153.303146C0 68.636156 68.777573 0 153.303146 0L870.696852 0C955.363845 0 1024 68.777573 1024 153.303146L1024 870.696852C1024 955.363845 955.222426 1024 870.696852 1024L153.303146 1024C68.636156 1024 0 955.222426 0 870.696852L0 153.303146 0 153.303146Z" p-id="2009"></path>
    <path d="M339.2 460.8C321.536 460.8 307.2 475.2 307.2 492.8 307.2 510.4 321.536 524.8 339.2 524.8L723.2 524.8C740.864 524.8 755.2 510.4 755.2 492.8 755.2 475.2 740.864 460.8 723.2 460.8L339.2 460.8Z" p-id="2010"></path>
  </symbol>

  <symbol id="plus-square" viewBox="0 0 1024 1024">
    <path d="M538.403347 130.875746h-42.191938V523.413957h-392.652822v42.191938h392.652822v332.800665h42.191938V565.605895h390.709562V523.413957H538.403347z" fill="#3E3A39" p-id="2553"></path><path d="M845.556888 19.012006H187.115632c-83.57751 0-151.573137 67.99665-151.573138 151.575184v688.109973c0 83.57751 67.995627 151.573137 151.573138 151.573138h658.441256c83.57751 0 151.573137-67.995627 151.573138-151.573138V170.58719c0-83.578534-67.995627-151.575184-151.573138-151.575184z m110.64089 839.685157c0 61.007469-49.633421 110.640889-110.64089 110.64089H187.115632c-61.007469 0-110.640889-49.633421-110.64089-110.64089V170.58719C76.474742 109.578698 126.108163 59.944254 187.115632 59.944254h658.441256c61.007469 0 110.640889 49.634444 110.64089 110.642936v688.109973z" fill="#3E3A39" p-id="2554"></path>
  </symbol>
</svg>
