<svg  version="1.1" xmlns="http://www.w3.org/2000/svg">
  <symbol id="minus-square" viewBox="0 0 1024 1024">
    <path d="M51.2 153.303146 51.2 153.303146 51.2 870.696852C51.2 927.00159 96.969249 972.8 153.303146 972.8L870.696852 972.8C927.00159 972.8 972.8 927.030753 972.8 870.696852L972.8 153.303146C972.8 96.998412 927.030753 51.2 870.696852 51.2L153.303146 51.2C96.998412 51.2 51.2 96.969249 51.2 153.303146L51.2 153.303146ZM0 153.303146C0 68.636156 68.777573 0 153.303146 0L870.696852 0C955.363845 0 1024 68.777573 1024 153.303146L1024 870.696852C1024 955.363845 955.222426 1024 870.696852 1024L153.303146 1024C68.636156 1024 0 955.222426 0 870.696852L0 153.303146 0 153.303146Z" p-id="2009"></path>
    <path d="M339.2 460.8C321.536 460.8 307.2 475.2 307.2 492.8 307.2 510.4 321.536 524.8 339.2 524.8L723.2 524.8C740.864 524.8 755.2 510.4 755.2 492.8 755.2 475.2 740.864 460.8 723.2 460.8L339.2 460.8Z" p-id="2010"></path>
  </symbol>

  <symbol id="plus-square" viewBox="0 0 1024 1024">
    <path d="M960 1022.6c35.3 0 64-28.699 64-64l0-894c0-35.4-28.7-64-64-64L64 0.6c-35.3 0-64 28.7-64 64l0 894c0 35.301 28.7 64 64 64L960 1022.6zM960 958.6 64 958.6l0-894 896 0L960 958.6z" p-id="6344"></path><path d="M799.984 480.003 543.997 480.003 543.997 224.016c0-17.698-14.299-31.997-31.996-31.997-17.699 0-31.998 14.299-31.998 31.997l0 255.987L224.016 480.003c-17.698 0-31.997 14.299-31.997 31.996 0 17.699 14.299 31.998 31.997 31.998l255.987 0 0 255.987c0 17.698 14.299 31.997 31.998 31.997 17.697 0 31.996-14.299 31.996-31.997L543.997 543.997l255.987 0c17.698 0 31.997-14.299 31.997-31.998C831.981 494.302 817.683 480.003 799.984 480.003z" p-id="6345"></path>
  </symbol>

  <symbol id="expand" viewBox="0 0 1024 1024">
    <path d="M256 256l0 512 128 0L192 960 0 768l128 0L128 256 0 256 192 64l192 192L256 256zM448 832l576 0L1024 704 448 704 448 832zM448 576l576 0L1024 448 448 448 448 576zM448 192l0 128 576 0L1024 192 448 192z" p-id="10893"></path>
  </symbol>

  <symbol id="collapse" viewBox="0 0 1024 1024">
    <path d="M256 256l128 0L192 448 0 256l128 0L128 64l128 0L256 256zM448 832l576 0L1024 704 448 704 448 832zM0 768l128 0 0 192 128 0L256 768l128 0L192 576 0 768zM448 576l576 0L1024 448 448 448 448 576zM448 192l0 128 576 0L1024 192 448 192z" p-id="8607"></path>
  </symbol>

  <symbol id="github" viewBox="0 0 1024 1024">
    <path d="M941.714 512q0 143.433-83.712 258.011t-216.283 158.574q-15.433 2.853-22.565-3.986t-7.131-17.152v-120.576q0-55.442-29.696-81.152 32.585-3.438 58.587-10.277t53.723-22.272 46.299-37.998 30.281-60.014 11.703-86.016q0-69.157-45.129-117.723 21.138-52.005-4.571-116.553-16.018-5.157-46.299 6.29t-52.553 25.161l-21.723 13.714q-53.138-14.848-109.714-14.848t-109.714 14.848q-9.143-6.29-24.283-15.433t-47.726-22.016-49.152-7.717q-25.161 64.585-3.986 116.553-45.129 48.567-45.129 117.723 0 48.567 11.703 85.723t29.989 60.014 46.007 38.29 53.723 22.272 58.587 10.277q-22.857 20.553-28.014 58.843-11.995 5.705-25.71 8.558t-32.585 2.853-37.413-12.288-31.707-35.73q-10.862-18.286-27.721-29.696t-28.27-13.714l-11.447-1.719q-11.995 0-16.567 2.56t-2.853 6.583 5.157 8.009 7.424 6.839l3.986 2.853q12.581 5.705 24.869 21.723t17.993 29.147l5.705 13.129q7.424 21.723 25.161 35.145t38.29 17.152 39.717 3.986 31.707-2.011l13.129-2.304q0 21.723 0.293 50.871t0.293 30.866q0 10.277-7.424 17.152t-22.857 3.986q-132.571-43.995-216.283-158.574t-83.712-258.011q0-119.442 58.843-220.27t159.707-159.707 220.27-58.843 220.27 58.843 159.707 159.707 58.843 220.27z" p-id="12243"></path>
  </symbol>

  <symbol id="database" viewBox="0 0 1024 1024">
    <path d="M512 1024c-212.032 0-384-85.952-384-192l0 0 0-108.032C128 830.08 299.968 896 512 896s384-65.92 384-172.032L896 832l0 0C896 938.048 724.032 1024 512 1024zM512 832c-212.032 0-384-85.952-384-192L128 531.968C128 638.08 299.968 704 512 704s384-65.92 384-172.032L896 640C896 746.048 724.032 832 512 832zM512 640c-212.032 0-384-85.952-384-192L128 339.968C128 446.08 299.968 512 512 512s384-65.92 384-172.032L896 448C896 554.048 724.032 640 512 640zM512 448C299.968 448 128 362.048 128 256L128 192c0-106.048 171.968-192 384-192s384 85.952 384 192l0 64C896 362.048 724.032 448 512 448z" p-id="5354"></path>
  </symbol>

  <symbol id="clear" viewBox="0 0 1024 1024">
    <path d="M204.21559 574.738903l27.238364 0 4.136204 0 594.510202 0 11.30344 0 11.79872 0c21.462824 0 31.564903-15.896038 22.414499-35.320437l-76.54842-162.779364c-9.149381-19.423375-34.195823-35.320437-55.658647-35.320437L609.165482 341.318666 609.165482 219.938178 609.165482 102.82897c0-21.482267-17.574261-39.037085-39.036062-39.037085l-78.073146 0c-21.462824 0-39.037085 17.554818-39.037085 39.037085l0 117.110231 0 121.380488L314.007135 341.319689c-21.481244 0-46.508243 15.897062-55.639205 35.320437L181.781648 539.418466C172.65171 558.841841 182.734346 574.738903 204.21559 574.738903zM834.942645 632.531144 236.848824 632.531144c3.25923 60.175521 1.849114 132.6256-48.090275 175.608553-69.934792 60.175521-46.356794 126.030391 3.25923 152.067394l101.537558 0c9.987468-13.628392 65.036225-91.625814 81.237209-170.443927 2.51631-16.353456 4.060479-27.181059 4.060479-27.181059-0.705058 8.996908-2.211365 18.088984-4.060479 27.181059-7.757684 50.130747-25.007557 153.440671-37.606503 170.443927l73.479525 0c9.988492-13.628392 65.036225-91.625814 81.238232-170.443927 2.515287-16.353456 4.059456-27.181059 4.059456-27.181059-0.705058 8.996908-2.211365 18.088984-4.059456 27.181059-7.758708 50.130747-25.007557 153.440671-37.607526 170.443927l92.597955 0c9.968026-13.628392 65.036225-91.625814 81.217766-170.443927 2.535753-16.353456 4.078899-27.181059 4.078899-27.181059-0.685615 8.996908-2.210341 18.088984-4.078899 27.181059-7.739265 50.130747-24.968671 153.440671-37.58706 170.443927l92.998067 0c9.969049-13.628392 65.036225-91.625814 81.21879-170.443927 2.535753-16.353456 4.078899-27.181059 4.078899-27.181059-0.686638 8.996908-2.211365 18.088984-4.078899 27.181059-7.739265 50.130747-24.989137 153.440671-37.607526 170.443927l93.53121 0c0 0 61.701271-22.13002 52.055586-93.513814C858.958618 764.910127 853.469604 708.336644 834.942645 632.531144z" p-id="2020"></path>
  </symbol>
</svg>
